<?xml version="1.0" encoding="utf-8"?>
<!-- Generator: Adobe Illustrator 19.1.0, SVG Export Plug-In . SVG Version: 6.00 Build 0)  -->
<svg version="1.1" id="Calque_1" xmlns="http://www.w3.org/2000/svg" xmlns:xlink="http://www.w3.org/1999/xlink" x="0px" y="0px"
	 viewBox="-260 340.5 90 112.5" style="enable-background:new -260 340.5 90 112.5;" xml:space="preserve">
<style type="text/css">
	.st0{fill:#FFFFFF;}
</style>
<g>
	<path class="st0" d="M-194.8,432.5c-2.9,0-5.9-0.6-8.8-2l-30.3-14.3c-1.8-0.9-3.2-2.4-3.9-4.3c-0.6-1.9-0.5-4,0.3-5.8
		c0.1-0.3,0.4-0.6,0.8-0.8c3.1-1.9,9.3-2.8,12.9-1.2l-14-22.5c-1.1-1.7-1.4-3.8-1-5.7c0.4-1.9,1.7-3.7,3.4-4.7l0,0
		c3.5-2.1,8.3-1.1,10.4,2.5l6.2,10.1c0.5-0.5,1.1-1.1,1.7-1.4c2.3-1.4,5.1-1.5,7.3-0.3c0.6-1.2,1.5-2.1,2.7-2.9
		c2.3-1.4,5.1-1.5,7.3-0.3c0.6-1.2,1.5-2.1,2.7-2.9c1.8-1.1,4-1.4,6-0.9c1.9,0.5,3.5,1.7,4.5,3.4l11.1,20.2c5.4,9.9,1.9,20.6-4,26.9
		C-183.7,430-189.2,432.5-194.8,432.5z M-234.3,408.2c-0.2,0.8-0.2,1.6,0.1,2.4c0.3,1,1.1,1.7,1.9,2.1L-202,427
		c8.2,3.9,15.7,0.3,20-4.2c4.9-5.3,8-14.3,3.4-22.5l-11.2-20.3c-0.4-0.8-1.2-1.4-2.1-1.6c-1.1-0.3-2.1-0.1-3.1,0.4
		c-1.1,0.6-1.7,1.7-1.8,3c-0.1,0.8-0.5,1.4-1.3,1.7c-0.8,0.2-1.5,0-2-0.5c-1.2-1.4-3.3-1.7-4.9-0.8c-1.1,0.6-1.7,1.7-1.8,3
		c-0.1,0.8-0.5,1.4-1.3,1.7c-0.8,0.2-1.5,0-2-0.5c-1.2-1.4-3.3-1.7-4.9-0.8c-0.9,0.5-1.5,1.4-1.7,2.5c-0.2,0.8-0.8,1.3-1.5,1.5
		c-0.8,0.1-1.5-0.2-1.9-0.9l-8-12.9c-1.1-1.8-3.4-2.4-5.3-1.2c-0.9,0.5-1.5,1.4-1.7,2.4s-0.1,2,0.4,2.9l17.3,27.9
		c0.4,0.8,0.3,1.6-0.2,2.3c-0.5,0.6-1.5,0.9-2.3,0.4l-5.4-3.1C-227.5,406.6-231.9,407-234.3,408.2z"/>
</g>
<g>
	<path class="st0" d="M-251.6,393.2c-0.5,0-1-0.3-1.3-0.8c-0.4-0.7-0.1-1.6,0.6-2l10.2-5.6c0.7-0.4,1.6-0.1,2,0.6s0.1,1.6-0.6,2
		l-10.2,5.6C-251.1,393.1-251.3,393.2-251.6,393.2z"/>
</g>
<g>
	<path class="st0" d="M-218.7,375.1c-0.5,0-1-0.3-1.3-0.8c-0.4-0.7-0.1-1.6,0.6-2l10.2-5.6c0.7-0.4,1.6-0.1,2,0.6s0.1,1.6-0.6,2
		l-10.2,5.6C-218.2,375-218.5,375.1-218.7,375.1z"/>
</g>
<g>
	<path class="st0" d="M-226.4,368c-0.1,0-0.3,0-0.4-0.1c-0.8-0.2-1.3-1.1-1-1.9l3.2-11.2c0.2-0.8,1.1-1.3,1.9-1
		c0.8,0.2,1.3,1.1,1,1.9l-3.2,11.2C-225.1,367.6-225.7,368-226.4,368z"/>
</g>
<g>
	<path class="st0" d="M-237.8,369.1c-0.5,0-1-0.3-1.3-0.7l-6.1-9.9c-0.4-0.7-0.2-1.6,0.5-2.1s1.6-0.2,2.1,0.5l6.1,9.9
		c0.4,0.7,0.2,1.6-0.5,2.1C-237.3,369-237.5,369.1-237.8,369.1z"/>
</g>
<g>
	<path class="st0" d="M-244.4,377c-0.1,0-0.2,0-0.4,0l-11.3-2.7c-0.8-0.2-1.3-1-1.1-1.8c0.2-0.8,1-1.3,1.8-1.1l11.3,2.7
		c0.8,0.2,1.3,1,1.1,1.8C-243.1,376.5-243.7,377-244.4,377z"/>
</g>
</svg>
