<?xml version="1.0" encoding="utf-8"?>
<!-- Generator: Adobe Illustrator 19.1.0, SVG Export Plug-In . SVG Version: 6.00 Build 0)  -->
<svg version="1.1" id="Calque_1" xmlns="http://www.w3.org/2000/svg" xmlns:xlink="http://www.w3.org/1999/xlink" x="0px" y="0px"
	 viewBox="-255 334 100 125" style="enable-background:new -255 334 100 125;" xml:space="preserve">
<style type="text/css">
	.st0{fill:#EDC064;}
</style>
<g>
	<path class="st0" d="M-172.8,391.9h-5.6c-1.8,0-3.3,1.5-3.3,3.3v5.6c0,1.8,1.5,3.3,3.3,3.3h5.6c1.8,0,3.3-1.5,3.3-3.3v-5.6
		C-169.5,393.4-171,391.9-172.8,391.9z M-173.3,395.7v4.6h-4.6v-4.6C-177.9,395.7-173.3,395.7-173.3,395.7z"/>
	<path class="st0" d="M-231.6,377.9h-5.6c-1.8,0-3.3,1.5-3.3,3.3v5.6c0,1.8,1.5,3.3,3.3,3.3h5.6c1.8,0,3.3-1.5,3.3-3.3v-5.6
		C-228.3,379.4-229.8,377.9-231.6,377.9z M-232.1,381.7v4.6h-4.6v-4.6H-232.1z"/>
	<path class="st0" d="M-231.6,391.9h-5.6c-1.8,0-3.3,1.5-3.3,3.3v5.6c0,1.8,1.5,3.3,3.3,3.3h5.6c1.8,0,3.3-1.5,3.3-3.3v-5.6
		C-228.3,393.4-229.8,391.9-231.6,391.9z M-232.1,395.7v4.6h-4.6v-4.6C-236.7,395.7-232.1,395.7-232.1,395.7z"/>
	<path class="st0" d="M-172.8,349.9h-5.6c-1.8,0-3.3,1.5-3.3,3.3v5.6c0,1.8,1.5,3.3,3.3,3.3h5.6c1.8,0,3.3-1.5,3.3-3.3v-5.6
		C-169.5,351.4-171,349.9-172.8,349.9z M-173.3,353.7v4.6h-4.6v-4.6H-173.3z"/>
	<rect x="-246.1" y="338.7" class="st0" width="3.8" height="90.6"/>
	<path class="st0" d="M-231.6,419.9h-5.6c-1.8,0-3.3,1.5-3.3,3.3v6.1h3.8v-5.6h4.6v5.6h3.8v-6.1
		C-228.3,421.4-229.8,419.9-231.6,419.9z"/>
	<rect x="-167.7" y="338.7" class="st0" width="3.8" height="90.6"/>
	<path class="st0" d="M-231.6,405.9h-5.6c-1.8,0-3.3,1.5-3.3,3.3v5.6c0,1.8,1.5,3.3,3.3,3.3h5.6c1.8,0,3.3-1.5,3.3-3.3v-5.6
		C-228.3,407.4-229.8,405.9-231.6,405.9z M-232.1,409.7v4.6h-4.6v-4.6H-232.1z"/>
	<path class="st0" d="M-173.3,344.3h-4.6v-5.6h-3.8v6.1c0,1.8,1.5,3.3,3.3,3.3h5.6c1.8,0,3.3-1.5,3.3-3.3v-6.1h-3.8V344.3z"/>
	<path class="st0" d="M-186.8,338.7h-36.4c-1.8,0-3.3,1.5-3.3,3.3v37.8c0,1.8,1.5,3.3,3.3,3.3h36.4c1.8,0,3.3-1.5,3.3-3.3V342
		C-183.5,340.2-185,338.7-186.8,338.7z M-187.3,342.5v36.8h-35.4v-36.8H-187.3z"/>
	<path class="st0" d="M-172.8,377.9h-5.6c-1.8,0-3.3,1.5-3.3,3.3v5.6c0,1.8,1.5,3.3,3.3,3.3h5.6c1.8,0,3.3-1.5,3.3-3.3v-5.6
		C-169.5,379.4-171,377.9-172.8,377.9z M-173.3,381.7v4.6h-4.6v-4.6H-173.3z"/>
	<path class="st0" d="M-172.8,419.9h-5.6c-1.8,0-3.3,1.5-3.3,3.3v6.1h3.8v-5.6h4.6v5.6h3.8v-6.1C-169.5,421.4-171,419.9-172.8,419.9
		z"/>
	<path class="st0" d="M-172.8,405.9h-5.6c-1.8,0-3.3,1.5-3.3,3.3v5.6c0,1.8,1.5,3.3,3.3,3.3h5.6c1.8,0,3.3-1.5,3.3-3.3v-5.6
		C-169.5,407.4-171,405.9-172.8,405.9z M-173.3,409.7v4.6h-4.6v-4.6H-173.3z"/>
	<path class="st0" d="M-186.8,384.9h-36.4c-1.8,0-3.3,1.5-3.3,3.3V426c0,1.8,1.5,3.3,3.3,3.3h36.4c1.8,0,3.3-1.5,3.3-3.3v-37.8
		C-183.5,386.4-185,384.9-186.8,384.9z M-187.3,388.7v36.8h-35.4v-36.8H-187.3z"/>
	<path class="st0" d="M-231.6,349.9h-5.6c-1.8,0-3.3,1.5-3.3,3.3v5.6c0,1.8,1.5,3.3,3.3,3.3h5.6c1.8,0,3.3-1.5,3.3-3.3v-5.6
		C-228.3,351.4-229.8,349.9-231.6,349.9z M-232.1,353.7v4.6h-4.6v-4.6H-232.1z"/>
	<path class="st0" d="M-172.8,363.9h-5.6c-1.8,0-3.3,1.5-3.3,3.3v5.6c0,1.8,1.5,3.3,3.3,3.3h5.6c1.8,0,3.3-1.5,3.3-3.3v-5.6
		C-169.5,365.4-171,363.9-172.8,363.9z M-173.3,367.7v4.6h-4.6v-4.6H-173.3z"/>
	<path class="st0" d="M-231.6,363.9h-5.6c-1.8,0-3.3,1.5-3.3,3.3v5.6c0,1.8,1.5,3.3,3.3,3.3h5.6c1.8,0,3.3-1.5,3.3-3.3v-5.6
		C-228.3,365.4-229.8,363.9-231.6,363.9z M-232.1,367.7v4.6h-4.6v-4.6H-232.1z"/>
	<path class="st0" d="M-232.1,344.3h-4.6v-5.6h-3.8v6.1c0,1.8,1.5,3.3,3.3,3.3h5.6c1.8,0,3.3-1.5,3.3-3.3v-6.1h-3.8V344.3z"/>
</g>
</svg>
