<?xml version="1.0" encoding="utf-8"?>
<!-- Generator: Adobe Illustrator 19.1.0, SVG Export Plug-In . SVG Version: 6.00 Build 0)  -->
<svg version="1.1" id="Calque_1" xmlns="http://www.w3.org/2000/svg" xmlns:xlink="http://www.w3.org/1999/xlink" x="0px" y="0px"
	 viewBox="-260 340.5 90 112.5" style="enable-background:new -260 340.5 90 112.5;" xml:space="preserve">
<style type="text/css">
	.st0{fill:#EDC064;}
</style>
<g>
	<path class="st0" d="M-199.9,385.8C-199.9,385.8-199.9,385.8-199.9,385.8c0.1,0.1,0.2,0.2,0.3,0.3c0,0,0,0,0,0
		c0.1,0.1,0.2,0.1,0.4,0.2c0,0,0,0,0,0c0.1,0,0.2,0.1,0.4,0.1c0.1,0,0.3,0,0.4,0s0.3,0,0.4,0c0.3-0.1,0.5-0.2,0.8-0.3c0,0,0,0,0,0
		c0.1-0.1,0.2-0.2,0.3-0.2c0,0,0,0,0,0l6.5-6.6c0.8-0.8,0.8-2.2,0-3s-2.2-0.8-3,0l-2.9,2.9v-21c0-1.2-0.9-2.1-2.1-2.1
		c-1.2,0-2.1,0.9-2.1,2.1v21l-2.9-2.9c-0.8-0.8-2.2-0.8-3,0c-0.8,0.8-0.8,2.2,0,3L-199.9,385.8z"/>
	<path class="st0" d="M-234.3,395.2c7.4,0,13.4-6,13.4-13.4c0-7.4-6-13.4-13.4-13.4c-7.4,0-13.4,6-13.4,13.4
		C-247.7,389.2-241.7,395.2-234.3,395.2z M-234.3,372.6c5.1,0,9.2,4.1,9.2,9.2c0,5.1-4.1,9.2-9.2,9.2c-5.1,0-9.2-4.1-9.2-9.2
		C-243.5,376.7-239.4,372.6-234.3,372.6z"/>
	<path class="st0" d="M-182,384.8c-0.5-0.4-1.2-0.5-1.8-0.4l-64.8,15.8c-0.9,0.2-1.6,1.1-1.6,2.1v7.4c0,0.6,0.3,1.3,0.8,1.7
		c0.4,0.3,0.8,0.5,1.3,0.5c0.2,0,0.3,0,0.5-0.1l27.6-6.7l-4,6.9c-0.4,0.7-0.4,1.5,0,2.1c0.4,0.7,1.1,1.1,1.8,1.1h13c0,0,0,0,0,0
		c1.2,0,2.1-0.9,2.1-2.1c0-0.5-0.2-0.9-0.4-1.3l-5-8.6l29.7-7.3c0.9-0.2,1.6-1.1,1.6-2.1v-7.4C-181.2,385.8-181.5,385.2-182,384.8z
		 M-218.5,411l2.8-4.9l2.8,4.9H-218.5z M-185.4,392.3l-30.8,7.5c0,0,0,0,0,0l-29.7,7.3V404l60.6-14.8L-185.4,392.3L-185.4,392.3z"/>
</g>
</svg>
