<?xml version="1.0" encoding="utf-8"?>
<!-- Generator: Adobe Illustrator 19.1.0, SVG Export Plug-In . SVG Version: 6.00 Build 0)  -->
<svg version="1.1" id="Calque_1" xmlns="http://www.w3.org/2000/svg" xmlns:xlink="http://www.w3.org/1999/xlink" x="0px" y="0px"
	 viewBox="-243 337 124 120" style="enable-background:new -243 337 124 120;" xml:space="preserve">
<style type="text/css">
	.st0{fill:#EDC064;}
</style>
<path class="st0" d="M-121,432.5c-1.1,0-2-0.9-2-2v-4c0-10-14.7-13.7-24-13.7c-0.6,0-1.2-0.3-1.6-0.8l-9-11.7
	c-0.7-0.9-0.5-2.1,0.4-2.8c0.9-0.7,2.1-0.5,2.8,0.4l8.4,10.9c11.2,0.3,27,5.1,27,17.7v4C-119,431.6-119.9,432.5-121,432.5z"/>
<path class="st0" d="M-199.5,404.5c-11.9,0-21.5-12.9-22.4-24.3c-2.7-0.8-5.1-3-5.1-5.7v-8c0-2.5,2.4-4.3,4-5.2v-6.8
	c0-7.6,6.1-13.8,13.6-14c1.6-0.6,7.9-3,14.4-3c10.3,0,16,6,16,17v6.2c4,0.8,4,4,4,5.8v8c0,2.8-1.3,4.9-3.3,5.6
	C-179.1,392-187.9,404.5-199.5,404.5z M-195,341.5c-6.5,0-13.1,2.8-13.2,2.8c-0.3,0.1-0.5,0.2-0.8,0.2c-5.5,0-10,4.5-10,10v8
	c0,0.8-0.5,1.5-1.2,1.8c-1.4,0.6-2.7,1.7-2.8,2.2v8c0,0.9,1.7,2,3,2c1.1,0,2,0.9,2,2c0,9.9,8.5,22,18.5,22c9.7,0,17.3-11.8,17.3-22
	c0-1.1,0.9-2,2-2c0.8,0,1.3-0.7,1.3-2v-8c0-2,0-2-2-2c-1.1,0-2-0.9-2-2v-8C-183,345.8-186.9,341.5-195,341.5z"/>
<path class="st0" d="M-159,400.1c-5.1,0-9.5-1-13.5-2.1c-1.1-0.3-1.7-1.4-1.4-2.5c0.3-1.1,1.4-1.7,2.5-1.4c3.7,1,7.8,2,12.4,2
	c19.5,0,27.3-9.6,29.7-13.8c-1.8-3-6.7-11.6-7.6-15.5c-1.6-6.7-6.9-22.4-22.1-22.4c-3,0-5.9,0.7-8.5,2c-1,0.5-2.2,0.1-2.7-0.9
	c-0.5-1-0.1-2.2,0.9-2.7c3.2-1.6,6.7-2.4,10.3-2.4c12.7,0,22.1,9.3,25.9,25.5c0.8,3.3,5.9,12.2,7.8,15.3c0.4,0.6,0.4,1.3,0.1,1.9
	C-130.5,393.8-143.1,400.1-159,400.1z"/>
<path class="st0" d="M-241,432.5c-1.1,0-2-0.9-2-2v-4c0-11.6,9.3-20,22-20h4.9l5.3-7.9c0.6-0.9,1.9-1.2,2.8-0.5
	c0.9,0.6,1.2,1.9,0.5,2.8l-5.9,8.8c-0.4,0.6-1,0.9-1.7,0.9h-6c-10.6,0-18,6.6-18,16v4C-239,431.6-239.9,432.5-241,432.5z"/>
<path class="st0" d="M-157,432.5c-1.1,0-2-0.9-2-2v-4c0-9.4-7.3-16-17.7-16h-6c-0.7,0-1.3-0.3-1.6-0.9l-6.5-9.4
	c-0.6-0.9-0.4-2.2,0.5-2.8c0.9-0.6,2.2-0.4,2.8,0.5l5.9,8.6h4.9c12.8,0,21.7,8.2,21.7,20v4C-155,431.6-155.9,432.5-157,432.5z"/>
<path class="st0" d="M-207,428.5c-0.1,0-0.2,0-0.4,0c-0.6-0.1-1.2-0.6-1.5-1.2l-8-18c-0.4-0.8-0.1-1.8,0.5-2.3
	c0.7-0.6,1.6-0.6,2.4-0.2l16,10c0.5,0.3,0.9,0.9,0.9,1.5c0.1,0.6-0.1,1.2-0.6,1.6l-8,8C-206,428.3-206.5,428.5-207,428.5z
	 M-210.5,413.7l4.2,9.4l4.2-4.2C-202.2,418.9-210.5,413.7-210.5,413.7z"/>
<path class="st0" d="M-191,428.5c-0.5,0-1-0.2-1.4-0.6l-8-8c-0.4-0.4-0.6-1-0.6-1.6c0.1-0.6,0.4-1.1,0.9-1.5l16-10
	c0.7-0.5,1.7-0.4,2.4,0.2c0.7,0.6,0.9,1.5,0.5,2.3l-8,18c-0.3,0.6-0.8,1-1.5,1.2C-190.8,428.5-190.9,428.5-191,428.5z M-195.8,418.9
	l4.2,4.2l4.2-9.4C-187.5,413.7-195.8,418.9-195.8,418.9z"/>
</svg>
