<?xml version="1.0" encoding="utf-8"?>
<!-- Generator: Adobe Illustrator 19.1.0, SVG Export Plug-In . SVG Version: 6.00 Build 0)  -->
<svg version="1.1" id="Capa_1" xmlns="http://www.w3.org/2000/svg" xmlns:xlink="http://www.w3.org/1999/xlink" x="0px" y="0px"
	 viewBox="-135 226.3 340.7 340.7" style="enable-background:new -135 226.3 340.7 340.7;" xml:space="preserve">
<style type="text/css">
	.st0{fill:#EDC064;}
</style>
<g>
	<g>
		<path class="st0" d="M-27.8,459.6c-4,0-7.2,3.2-7.2,7.2v93.1c0,4,3.2,7.2,7.2,7.2s7.2-3.2,7.2-7.2v-93.1
			C-20.7,462.8-23.9,459.6-27.8,459.6z"/>
		<path class="st0" d="M-50.2,420.3c-4,0-7.2,3.2-7.2,7.2v93c0,4,3.2,7.2,7.2,7.2s7.2-3.2,7.2-7.2v-93
			C-43.1,423.5-46.3,420.3-50.2,420.3z"/>
		<path class="st0" d="M-5.4,438.2c-4,0-7.2,3.2-7.2,7.2v93c0,4,3.2,7.2,7.2,7.2c4,0,7.2-3.2,7.2-7.2v-93
			C1.8,441.4-1.5,438.2-5.4,438.2z"/>
		<path class="st0" d="M64,268.7c4,0,7.2-3.2,7.2-7.2v-28.1c0-4-3.2-7.2-7.2-7.2s-7.2,3.2-7.2,7.2v28.1
			C56.9,265.5,60.1,268.7,64,268.7z"/>
		<path class="st0" d="M-12.1,296c1.4,1.4,3.2,2.1,5.1,2.1c1.8,0,3.7-0.7,5.1-2.1c2.8-2.8,2.8-7.3,0-10.1l-19.8-19.8
			c-2.8-2.8-7.3-2.8-10.1,0c-2.8,2.8-2.8,7.3,0,10.1L-12.1,296z"/>
		<path class="st0" d="M140.1,428c-2.8-2.8-7.3-2.8-10.1,0c-2.8,2.8-2.8,7.3,0,10.1l19.8,19.9c1.4,1.4,3.2,2.1,5.1,2.1
			s3.7-0.7,5.1-2.1c2.8-2.8,2.8-7.3,0-10.1L140.1,428z"/>
		<path class="st0" d="M192.6,354.8h-28.1c-4,0-7.2,3.2-7.2,7.2c0,4,3.2,7.2,7.2,7.2h28.1c4,0,7.2-3.2,7.2-7.2
			C199.7,358,196.5,354.8,192.6,354.8z"/>
		<path class="st0" d="M135.1,298.1c1.8,0,3.7-0.7,5.1-2.1l19.8-19.8c2.8-2.8,2.8-7.3,0-10.1c-2.8-2.8-7.3-2.8-10.1,0L130,285.9
			c-2.8,2.8-2.8,7.3,0,10.1C131.4,297.4,133.2,298.1,135.1,298.1z"/>
		<path class="st0" d="M144.1,362c0-44.1-35.9-80-80-80c-35.1,0-65.7,23-76.1,55.7c-6.7-2.3-13.8-3.5-21.2-3.5
			c-11.5,0-22.9,3.1-32.9,8.9c-6.7,3.9-12.6,8.9-17.6,14.8c-7.4,0.5-14.7,2.6-21.2,6.4c-14.8,8.6-24.1,24.6-24.1,41.7
			s9.2,33.1,24.1,41.7c2.8,1.6,5.9,3,9.1,4c3.8,11.9,10.8,22.3,20.5,30.4c3,2.5,7.5,2.1,10.1-0.9c2.5-3,2.1-7.5-0.9-10.1
			c-8.5-7.1-14.3-16.4-17-27c-0.7-2.6-2.7-4.6-5.3-5.2c-3.4-0.8-6.5-2-9.3-3.6c-10.4-6-16.9-17.3-16.9-29.3s6.5-23.2,16.9-29.3
			c5.2-3,11-4.6,16.6-4.6c0.1,0,0.5,0,0.7,0c2.3,0.1,4.6-1,6-2.9c4.2-5.7,9.4-10.3,15.5-13.8c7.8-4.5,16.7-6.9,25.7-6.9
			c7,0,13.8,1.4,20,4c0.7,0.9,1.6,1.7,2.7,2.3c9,4.5,16.4,11.3,21.5,19.8c2,3.3,6.2,4.4,9.5,2.6c6.9-3.7,15.6-3.6,22.5,0.4
			c7,4.1,11.4,11.6,11.6,19.6c-0.1,4.1-1.2,8-3.3,11.5c-0.8,1.4-1.1,2.9-0.9,4.4c0,1.6,0.4,3.3,1.5,4.6c4,5,6.4,11.1,7,17.7
			c0,0.5,0.1,0.9,0.3,1.3c0,0.4,0,0.7,0,1.1c0,12-6.5,23.2-16.9,29.3c-7.6,4.4-16.6,5.7-25.2,3.5c-3.8-1-7.7,1.3-8.7,5.1
			c-1,3.8,1.3,7.7,5.1,8.7c3.9,1,7.9,1.5,11.9,1.5c8.4,0,16.8-2.3,24.1-6.5c13.8-8,22.8-22.4,23.9-38.2
			C113.5,436.8,144.1,403.3,144.1,362z M72.2,427.1c-1.2-5.3-3.3-10.3-6.3-15c1.9-4.5,2.9-9.4,2.9-14.4c0-0.1,0-0.3,0-0.4
			c0-0.1,0-0.3,0-0.4c0-13.3-7.2-25.8-18.8-32.5c-9.2-5.3-20.4-6.4-30.4-3.2c-5.1-7-11.5-12.9-18.7-17.3c8-27.9,33.6-47.6,63.1-47.6
			c36.2,0,65.7,29.5,65.7,65.7C129.8,395.7,104.9,423.1,72.2,427.1z"/>
	</g>
</g>
</svg>
