<svg id="Calque_1" data-name="Calque 1" xmlns="http://www.w3.org/2000/svg" viewBox="0 0 69.61 67.95"><defs><style>.cls-1{fill:#edc064;}</style></defs><title>terrain</title><path class="cls-1" d="M86.44,56.07a1.5,1.5,0,0,0-1.91-.92c-8.73,3-15,4.21-20,4.26l0-8.6,9.51,3.83a1.5,1.5,0,1,0,1.12-2.78L64.56,47.58l0-4.82L72.87,46A1.5,1.5,0,1,0,74,43.22L64.6,39.54l0-4.7,7.19,3.06A1.5,1.5,0,1,0,73,35.14l-8.35-3.55V28.14l4.72,2.24a1.5,1.5,0,0,0,1.29-2.71l-6-2.85V22l1.77,0.84a1.5,1.5,0,0,0,1.29-2.71l-3.91-1.85h0a1.52,1.52,0,0,0-.32-0.11h0l-0.26,0H63l-0.23,0-0.11,0-0.21.09-0.06,0-5.12,3a1.5,1.5,0,1,0,1.51,2.59l2.85-1.66v2.69l-6.57,3.82a1.5,1.5,0,1,0,1.51,2.59l5-2.93v3.41l-7.72,5L48.63,32.3a1.5,1.5,0,0,0-1.91,0l-7.48,5.92L36,34.38a1.5,1.5,0,0,0-2-.25l-8.71,6.12A1.5,1.5,0,0,0,27,42.7l7.6-5.33L36.88,40l-5,4a1.5,1.5,0,1,0,1.86,2.35l13.88-11,3.68,3.16-2.58,1.68a1.5,1.5,0,0,0,1.63,2.52l11.27-7.32,0,4.45L50.4,47.4a1.5,1.5,0,1,0,1.68,2.49l9.51-6.4,0,4.4-5,3.11a1.5,1.5,0,1,0,1.59,2.55l3.37-2.11,0,7.86c-5-.44-8.71-2.05-12.66-3.79-6.35-2.79-13.54-6-27.44-4.73a1.5,1.5,0,1,0,.26,3c13.14-1.15,19.66,1.72,26,4.49,4.8,2.11,9.44,4.15,16.49,4.15,5.36,0,12.11-1.18,21.38-4.42A1.5,1.5,0,0,0,86.44,56.07Z" transform="translate(-16.91 -12.67)"/><path class="cls-1" d="M78.12,66.13C63.37,70.28,57.54,68,51.38,65.5a39.39,39.39,0,0,0-13-3.32,1.5,1.5,0,0,0-.2,3,36.85,36.85,0,0,1,12.1,3.12c3.87,1.54,7.81,3.11,13.85,3.11A55,55,0,0,0,78.93,69,1.5,1.5,0,1,0,78.12,66.13Z" transform="translate(-16.91 -12.67)"/><path class="cls-1" d="M74.16,75.8c-12,3.81-20.25.95-29-2.08-7.9-2.73-16.06-5.55-27-3.36a1.5,1.5,0,0,0,.59,2.94c10.18-2,17.6.53,25.46,3.25,5.82,2,11.77,4.07,18.84,4.07a39.38,39.38,0,0,0,12.06-2A1.5,1.5,0,0,0,74.16,75.8Z" transform="translate(-16.91 -12.67)"/><path class="cls-1" d="M38.54,24.1a5.72,5.72,0,1,0-5.72-5.72A5.72,5.72,0,0,0,38.54,24.1Zm0-8.43a2.72,2.72,0,1,1-2.72,2.72A2.72,2.72,0,0,1,38.54,15.67Z" transform="translate(-16.91 -12.67)"/></svg>